#!OML:ASF Y:\EmotionMaleHayes\Project 1\Capture day 1\Session 1\Male1.ASF
:FULLY-SPECIFIED
:DEGREES
357
root 35.5333 17.1869 0.60385 -8.48326 -4.32339 -365.668
lowerback 13.8745 -1.50451 1.42417
upperback 0.135765 -2.13386 -4.47397
thorax -7.89391 -1.19225 -5.17032
lowerneck -10.4628 18.694 20.9878
upperneck 22.633 25.1214 -10.1916
head 13.3059 12.0501 -2.58181
rclavicle -4.37326e-015 4.77083e-015
rhumerus 10.7876 -35.0989 17.6423
rradius 61.7169
rwrist -44.5747
rhand -12.2586 -38.4774
rfingers 7.12502
rthumb 13.8078 -67.9992
lclavicle -4.37326e-015 4.77083e-015
lhumerus -43.2653 -30.3313 100.301
lradius 71.1286
lwrist -44.0339
lhand -27.9818 -62.1357
lfingers 7.12502
lthumb -1.36832 -32.1603
rfemur -0.661088 -7.3735 26.627
rtibia 21.4278
rfoot -12.3053 4.16192
rtoes 25.706
lfemur 14.9614 13.7559 0.6977
ltibia 75.8497
lfoot -14.2497 5.41508
ltoes 10.8365
358
root 35.7432 17.1255 0.694676 -8.58013 -6.09957 -366.665
lowerback 14.113 -0.752577 2.4404
upperback -0.283401 -0.991194 -4.60249
thorax -8.38557 -0.701558 -6.15025
lowerneck -10.2327 18.4313 21.6389
upperneck 21.7966 24.6459 -10.5562
head 12.9959 11.8782 -2.93803
rclavicle -1.37161e-014 1.90833e-014
rhumerus 11.4719 -36.4851 16.4374
rradius 64.4829
rwrist -44.4728
rhand -13.0868 -37.4251
rfingers 7.12502
rthumb 13.0095 -66.9995
lclavicle -1.37161e-014 1.90833e-014
lhumerus -46.3114 -29.6989 100.313
lradius 71.999
lwrist -44.6538
lhand -31.2302 -67.398
lfingers 7.12502
lthumb -4.5054 -37.4659
rfemur 0.00575987 -4.28209 28.362
rtibia 21.2468
rfoot -13.0216 2.9929
rtoes 26.3109
lfemur 15.5842 14.5463 5.08284
ltibia 76.5918
lfoot -14.2562 3.43427
ltoes 9.04537
359
root 35.9616 17.1018 0.777302 -8.23734 -7.60407 -366.348
lowerback 13.4667 -0.00674082 1.65075
upperback -0.511387 -0.142709 -4.73931
thorax -8.15404 -0.257515 -6.01212
lowerneck -10.1541 18.4258 21.6647
upperneck 20.5146 24.6471 -11.1867
head 12.5728 11.8355 -3.19278
rclavicle 5.1684e-015 9.54166e-015
rhumerus 12.8342 -38.2562 14.8696
rradius 67.5455
rwrist -44.5024
rhand -14.9243 -35.5256
rfingers 7.12502
rthumb 11.2377 -65.2046
lclavicle 5.1684e-015 9.54166e-015
lhumerus -47.6916 -28.2912 99.2051
lradius 72.2926
lwrist -46.491
lhand -33.9543 -72.0281
lfingers 7.12502
lthumb -7.13542 -42.1684
rfemur -1.10252 -1.28366 28.4542
rtibia 23.1408
rfoot -13.9973 1.56385
rtoes 23.0204
lfemur 15.3763 15.4949 7.45678
ltibia 76.8372
lfoot -14.4809 2.63225
ltoes 10.2416
360
root 36.1785 17.1146 0.861353 -7.8454 -9.03746 -365.567
lowerback 12.4023 0.841262 0.249725
upperback -0.600371 0.766004 -4.98089
thorax -7.55163 0.24949 -5.61133
lowerneck -9.9887 18.4758 21.8847
upperneck 19.1033 24.7599 -12.0965
head 12.1864 11.8346 -3.54199
rclavicle -1.09332e-014 3.18055e-015
rhumerus 13.6187 -39.8832 13.5647
rradius 71.2359
rwrist -44.5632
rhand -16.8782 -33.4788
rfingers 7.12502
rthumb 9.35285 -63.2514
lclavicle -1.09332e-014 3.18055e-015
lhumerus -48.4128 -27.2959 97.6727
lradius 71.8403
lwrist -47.6393
lhand -36.5313 -76.14
lfingers 7.12502
lthumb -9.62242 -46.3797
rfemur -2.72673 0.616896 27.5919
rtibia 25.4643
rfoot -14.5736 1.46251
rtoes 19.4295
lfemur 15.0357 16.4735 8.86357
ltibia 76.6627
lfoot -15.0448 2.74232
ltoes 11.0417
361
root 36.4193 17.1255 0.947862 -7.10012 -9.73768 -365.271
lowerback 10.8029 1.39555 -0.41313
upperback -0.595414 1.44851 -5.16495
thorax -6.58268 0.623789 -5.47979
lowerneck -10.0545 18.538 22.1171
upperneck 18.0885 24.8542 -12.8945
head 11.9855 11.8219 -3.82752
rclavicle 9.34288e-015 -3.81667e-014
rhumerus 13.9523 -41.2444 12.5437
rradius 75.301
rwrist -44.5445
rhand -18.6885 -31.5219
rfingers 7.12502
rthumb 7.60585 -61.3651
lclavicle 9.34288e-015 -3.81667e-014
lhumerus -48.3746 -26.3099 95.724
lradius 70.8529
lwrist -47.3091
lhand -37.2286 -79.309
lfingers 7.12502
lthumb -10.2952 -49.581
rfemur -4.51228 0.127302 25.9971
rtibia 27.2423
rfoot -14.6388 2.81324
rtoes 14.5878
lfemur 13.805 17.266 10.0864
ltibia 76.1811
lfoot -15.6225 3.68686
ltoes 9.07117
362
root 36.6734 17.1649 1.01441 -7.23357 -9.58992 -365.395
lowerback 10.4354 1.60884 -0.651016
upperback -0.315843 1.7262 -5.20559
thorax -6.05809 0.779576 -5.40139
lowerneck -10.5595 18.4654 21.6975
upperneck 17.4037 24.6815 -13.1794
head 11.7715 11.6753 -3.89027
rclavicle 1.91827e-014 -1.59028e-014
rhumerus 14.0522 -42.1393 11.7146
rradius 79.5137
rwrist -44.5577
rhand -20.5417 -29.1205
rfingers 7.12502
rthumb 5.81681 -59.0207
lclavicle 1.91827e-014 -1.59028e-014
lhumerus -48.3225 -26.0826 93.6204
lradius 69.4489
lwrist -46.1412
lhand -37.6048 -79.5362
lfingers 7.12502
lthumb -10.6581 -49.8266
rfemur -4.76366 -0.894966 24.5504
rtibia 28.3486
rfoot -14.5426 4.51223
rtoes 15.2322
lfemur 12.8236 17.138 11.5031
ltibia 75.345
lfoot -16.3683 4.26095
ltoes 7.65309
363
root 36.9158 17.2135 1.07654 -7.73867 -9.33222 -365.953
lowerback 10.5248 1.69972 -0.927022
upperback 0.0594734 1.84495 -4.91053
thorax -5.71829 0.859433 -4.93411
lowerneck -11.6939 18.5907 21.2727
upperneck 17.8987 24.7389 -13.0302
head 12.0935 11.6147 -3.67504
rclavicle -9.14409e-015 -3.49861e-014
rhumerus 14.316 -42.7466 10.9778
rradius 83.8809
rwrist -44.4323
rhand -22.289 -27.0534
rfingers 7.12502
rthumb 4.12974 -56.9931
lclavicle -9.14409e-015 -3.49861e-014
lhumerus -47.8767 -25.1848 91.1856
lradius 67.9292
lwrist -44.0847
lhand -36.3939 -77.3587
lfingers 7.12502
lthumb -9.48991 -47.5924
rfemur -4.1009 -1.75996 23.6993
rtibia 28.6241
rfoot -13.9086 5.72391
rtoes 15.9648
lfemur 12.106 16.7864 13.3943
ltibia 74.1409
lfoot -17.0535 4.21284
ltoes 8.33169
364
root 37.1838 17.2817 1.14568 -8.96238 -8.6855 -365.925
lowerback 11.272 1.73053 -1.51333
upperback 0.554962 1.80497 -4.86202
thorax -5.63724 0.859608 -4.55874
lowerneck -13.0014 18.5048 20.6799
upperneck 18.6358 24.4457 -12.5543
head 12.4058 11.4095 -3.40172
rclavicle -1.68967e-015 -6.36111e-015
rhumerus 14.9588 -42.6185 8.594
rradius 88.7323
rwrist -42.2274
rhand -23.9294 -25.5951
rfingers 7.12502
rthumb 2.54551 -55.5597
lclavicle -1.68967e-015 -6.36111e-015
lhumerus -47.3407 -24.5647 88.7302
lradius 66.2202
lwrist -41.1051
lhand -34.8056 -72.4315
lfingers 7.12502
lthumb -7.9571 -42.6012
rfemur -2.33965 -2.50707 21.8794
rtibia 28.1354
rfoot -12.6308 6.37963
rtoes 17.9331
lfemur 11.7606 16.0258 14.0312
ltibia 72.3979
lfoot -17.7714 5.25091
ltoes 6.53903
365
root 37.4455 17.3438 1.20736 -10.2566 -7.56307 -365.972
lowerback 12.2541 1.64757 -2.16789
upperback 1.00816 1.58638 -4.76586
thorax -5.74217 0.769931 -4.07656
lowerneck -13.8051 18.487 20.5693
upperneck 19.3211 24.3805 -12.5198
head 12.7918 11.3177 -3.31983
rclavicle 2.98177e-015 -4.77083e-014
rhumerus 15.1785 -41.8798 7.1315
rradius 93.3885
rwrist -39.553
rhand -25.5394 -25.5332
rfingers 7.12502
rthumb 0.990633 -55.5106
lclavicle 2.98177e-015 -4.77083e-014
lhumerus -46.7419 -24.1232 86.3372
lradius 64.4968
lwrist -37.2366
lhand -32.3267 -65.4717
lfingers 7.12502
lthumb -5.56414 -35.5648
rfemur -0.365939 -3.96356 20.036
rtibia 27.2246
rfoot -10.8408 6.39234
rtoes 13.6545
lfemur 11.1202 14.9656 14.3505
ltibia 70.5
lfoot -18.4516 6.25037
ltoes 2.96635
366
root 37.7062 17.3984 1.26059 -11.4749 -6.3285 -366.323
lowerback 13.3225 1.49116 -2.48742
upperback 1.40393 1.3068 -4.58759
thorax -5.94318 0.642077 -3.68655
lowerneck -14.5317 18.5158 20.4666
upperneck 20.2112 24.4146 -12.4057
head 13.2579 11.2766 -3.18956
rclavicle 1.59028e-014 -1.59028e-014
rhumerus 14.8656 -41.0897 7.57466
rradius 97.3333
rwrist -37.3239
rhand -26.6208 -26.2924
rfingers 7.12502
rthumb -0.0538365 -56.2721
lclavicle 1.59028e-014 -1.59028e-014
lhumerus -45.9248 -23.7082 83.9192
lradius 62.7133
lwrist -32.8252
lhand -28.8025 -57.6325
lfingers 7.12502
lthumb -2.16096 -27.6637
rfemur 1.71879 -5.67592 18.51
rtibia 26.0517
rfoot -8.51764 6.06898
rtoes 7.53516
lfemur 10.3163 13.8071 14.5951
ltibia 68.5669
lfoot -19.0124 6.83905
ltoes 0.567495
367
root 37.9773 17.452 1.29861 -12.4085 -5.12475 -366.683
lowerback 14.2446 1.28153 -2.60936
upperback 1.68813 0.981398 -4.47635
thorax -6.17032 0.486542 -3.46252
lowerneck -14.8344 18.5496 20.3968
upperneck 20.8204 24.4931 -12.2928
head 13.5493 11.2865 -3.08898
rclavicle 1.73937e-014 -4.45278e-014
rhumerus 14.5187 -39.7039 7.27291
rradius 101.552
rwrist -34.1165
rhand -27.1877 -26.8321
rfingers 7.12502
rthumb -0.601357 -56.811
lclavicle 1.73937e-014 -4.45278e-014
lhumerus -44.7751 -23.4473 81.4465
lradius 60.7986
lwrist -28.0139
lhand -25.3966 -48.8752
lfingers 7.12502
lthumb 1.1285 -18.8984
rfemur 2.69747 -6.51811 17.1908
rtibia 26.7324
rfoot -6.55982 5.40649
rtoes 13.0878
lfemur 9.19686 12.8443 14.3577
ltibia 66.7213
lfoot -19.5304 7.42479
ltoes 1.71722
368
root 38.2691 17.5164 1.33166 -13.2028 -3.99779 -367.106
lowerback 15.0544 1.02788 -2.48242
upperback 1.9035 0.643117 -4.33447
thorax -6.40131 0.31982 -3.3354
lowerneck -14.4069 18.6022 20.5121
upperneck 20.8815 24.7854 -12.7162
head 13.6367 11.3963 -3.21122
rclavicle 3.67752e-015 1.90833e-014
rhumerus 13.9979 -37.7046 6.92359
rradius 105.918
rwrist -31.1559
rhand -28.1509 -27.1742
rfingers 7.12502
rthumb -1.53163 -57.1485
lclavicle 3.67752e-015 1.90833e-014
lhumerus -43.3955 -23.27 78.9906
lradius 58.8547
lwrist -23.2579
lhand -20.3919 -39.9541
lfingers 7.12502
lthumb 5.96142 -10.058
rfemur 3.12119 -7.75456 15.8282
rtibia 27.7796
rfoot -4.5548 4.30122
rtoes 10.813
lfemur 8.03051 11.957 13.7062
ltibia 64.8032
lfoot -20.2229 8.37515
ltoes 5.10104
369
root 38.5677 17.582 1.36836 -13.6756 -3.17146 -367.345
lowerback 15.5019 0.942255 -2.53505
upperback 1.94852 0.515394 -4.12424
thorax -6.60703 0.261572 -3.06523
lowerneck -14.5581 18.5157 20.2844
upperneck 21.7248 24.8105 -12.6061
head 13.9705 11.3765 -3.12024
rclavicle 9.64106e-015 1.27222e-014
rhumerus 13.1358 -35.2707 7.18485
rradius 110.187
rwrist -28.9883
rhand -29.1074 -27.2394
rfingers 7.12502
rthumb -2.45542 -57.205
lclavicle 9.64106e-015 1.27222e-014
lhumerus -41.8359 -23.0685 76.7081
lradius 56.7759
lwrist -18.8257
lhand -16.3336 -32.7743
lfingers 7.12502
lthumb 9.87832 -3.02604
rfemur 2.80778 -8.80713 14.3488
rtibia 29.2814
rfoot -2.0466 3.23326
rtoes 14.1512
lfemur 6.89999 11.6981 12.8054
ltibia 62.7913
lfoot -21.0172 9.64746
ltoes 8.22876
